<?xml version="1.0" standalone="no"?>
<!DOCTYPE svg PUBLIC "-//W3C//DTD SVG 20010904//EN"
 "http://www.w3.org/TR/2001/REC-SVG-20010904/DTD/svg10.dtd">
<svg version="1.0" xmlns="http://www.w3.org/2000/svg"
 width="260.000000pt" height="260.000000pt" viewBox="0 0 260.000000 260.000000"
 preserveAspectRatio="xMidYMid meet">
<metadata>
Created by potrace 1.14, written by Peter Selinger 2001-2017
</metadata>
<g transform="translate(0.000000,260.000000) scale(0.100000,-0.100000)"
fill="#000000" stroke="none">
<path d="M344 2575 c1 -16 -5 -20 -31 -20 -24 0 -29 -3 -21 -12 8 -9 7 -13 -3
-13 -11 0 -11 -2 1 -10 13 -8 13 -10 -2 -11 -43 -3 -59 -15 -51 -36 4 -10 2
-14 -4 -10 -6 4 -14 1 -16 -5 -4 -10 -6 -10 -6 0 -2 24 -21 2 -21 -24 0 -17
-5 -24 -20 -24 -11 0 -21 -7 -21 -15 -3 -28 -4 -33 -11 -40 -4 -4 -4 -13 -1
-21 3 -8 0 -14 -7 -14 -6 0 -9 4 -6 8 3 5 -1 9 -8 9 -8 0 -12 -6 -9 -14 3 -7
0 -13 -5 -13 -6 0 -9 -17 -7 -40 2 -22 -1 -40 -6 -40 -6 0 -7 -4 -4 -10 3 -5
2 -10 -4 -10 -5 0 -11 6 -14 13 -3 9 -8 9 -18 -2 -12 -11 -12 -13 0 -6 10 6
12 2 6 -14 -3 -12 -8 -41 -9 -65 -2 -24 -7 -49 -11 -56 -4 -7 -1 -16 6 -21 11
-7 11 -9 1 -9 -7 0 -10 -5 -6 -12 4 -7 3 -8 -5 -4 -6 4 -9 13 -5 19 3 7 -2 3
-10 -7 -19 -24 -21 -46 -3 -46 9 0 9 -2 0 -8 -17 -11 -16 -390 1 -411 8 -12 8
-13 -1 -7 -9 4 -13 1 -13 -9 0 -12 5 -15 18 -11 15 6 16 5 1 -7 -18 -13 -20
-80 -4 -94 4 -5 5 -3 2 4 -4 6 -1 13 5 16 10 3 10 9 0 27 -7 12 -11 25 -8 28
3 3 6 -1 7 -9 0 -8 4 -6 9 6 6 15 8 8 7 -25 -1 -25 2 -51 6 -58 5 -7 3 -12 -3
-12 -6 0 -8 -5 -3 -12 4 -7 8 -32 9 -56 1 -23 4 -45 7 -48 3 -3 1 -19 -3 -36
-8 -27 -7 -28 7 -16 15 11 16 11 9 -7 -5 -11 -9 -27 -10 -35 -1 -9 -6 -22 -11
-30 -8 -13 -6 -13 8 -1 10 8 17 9 17 3 0 -6 -5 -14 -10 -17 -13 -8 -13 -25 0
-25 5 0 9 4 7 9 -1 5 1 9 6 10 8 1 9 -3 1 -24 -3 -8 -11 -12 -18 -8 -6 4 -4
-2 4 -13 22 -29 24 -30 17 -12 -3 9 0 21 6 26 9 8 12 -14 12 -94 0 -57 2 -104
5 -104 3 0 5 -17 4 -37 -1 -44 3 -56 17 -47 6 4 6 10 -1 19 -8 9 -7 14 4 18 9
4 18 1 22 -5 4 -7 3 -8 -5 -4 -9 6 -10 0 -4 -21 4 -15 7 -36 7 -45 0 -10 5
-18 11 -18 6 0 7 -3 0 -8 -15 -11 -14 -39 1 -39 8 0 14 4 14 9 0 4 4 8 8 8 4
0 9 -25 10 -56 1 -30 6 -63 12 -72 9 -14 10 -12 4 8 -6 22 -5 23 10 11 9 -7
16 -10 17 -5 0 5 6 -7 12 -26 9 -24 9 -37 2 -42 -10 -8 -6 -10 24 -12 8 -1 16
-12 18 -25 4 -27 22 -62 23 -43 0 23 20 12 20 -12 0 -14 4 -27 10 -31 5 -3 7
-13 4 -23 -5 -14 -4 -14 4 -2 6 8 8 18 6 22 -3 4 0 8 7 8 6 0 9 -8 6 -20 -3
-13 0 -20 10 -20 9 0 13 -8 11 -22 -2 -16 3 -23 22 -28 14 -3 25 -11 25 -17 0
-13 13 -27 26 -29 5 -1 14 -2 19 -3 6 0 10 -11 10 -24 0 -18 5 -23 23 -23 15
1 21 -4 19 -16 -4 -24 14 -31 29 -10 13 16 13 16 -5 2 -17 -13 -19 -13 -14 0
7 22 33 18 33 -5 0 -11 7 -20 15 -21 35 -2 39 -5 35 -23 -3 -16 5 -20 45 -25
27 -4 52 -12 56 -18 4 -7 3 -8 -4 -4 -7 4 -12 3 -12 -3 0 -13 67 -31 88 -23
14 5 15 4 2 -10 -8 -9 -19 -13 -25 -10 -5 2 -4 -1 3 -9 11 -12 14 -12 22 1 9
13 10 13 10 0 0 -11 13 -15 51 -17 54 -1 80 -15 58 -28 -8 -6 -10 -4 -4 5 5 9
4 11 -4 6 -15 -10 -7 -22 20 -29 16 -4 19 -2 14 11 -5 14 -4 14 12 0 10 -8 30
-15 46 -14 15 1 27 -2 27 -7 0 -5 7 -6 16 -3 11 4 14 1 9 -13 -5 -18 5 -19
251 -20 197 -2 254 1 248 10 -5 9 -3 9 7 3 8 -5 33 -9 56 -10 32 -1 40 2 36
13 -5 12 -7 12 -14 1 -7 -11 -9 -11 -9 1 0 10 -3 11 -14 2 -10 -9 -16 -9 -21
-1 -4 6 -4 14 -1 17 3 4 6 1 6 -7 0 -9 4 -9 12 -2 7 5 25 8 41 6 15 -1 25 0
23 4 -4 6 25 10 97 13 13 0 15 4 7 19 -8 15 -6 19 8 22 9 2 23 -3 30 -12 10
-12 12 -13 10 0 -3 13 15 18 75 21 9 0 17 5 17 10 0 6 -4 7 -10 4 -5 -3 -10
-2 -10 4 0 6 12 13 28 17 15 3 36 9 47 12 11 3 25 5 30 3 6 -1 7 0 3 4 -11 11
15 33 43 37 18 2 23 8 21 25 -3 19 1 22 25 20 23 -2 28 2 28 20 0 12 4 25 8
29 7 7 11 -9 8 -36 -2 -13 -1 -13 8 0 5 8 7 18 5 22 -3 5 9 11 25 14 21 5 30
12 29 23 -2 11 6 17 25 19 24 3 33 16 28 45 -1 7 14 11 36 8 7 -1 10 7 8 19
-2 11 3 24 13 30 15 8 15 11 2 20 -10 7 -11 10 -2 11 6 1 17 2 22 3 16 2 29
27 23 43 -4 9 0 11 11 7 20 -8 48 14 39 30 -17 26 -11 35 14 25 15 -5 22 -5
18 0 -3 5 -1 12 5 16 6 4 7 11 4 17 -4 6 0 14 7 19 10 6 10 9 2 9 -7 0 -10 6
-7 14 3 8 13 13 23 11 11 -2 18 4 19 18 1 12 4 31 6 42 3 11 5 25 5 31 1 7 8
11 18 10 13 -1 17 10 20 51 4 51 3 52 -22 47 -14 -2 -25 0 -25 6 0 7 -6 8 -19
0 -11 -5 -33 -10 -49 -10 -23 0 -30 -4 -27 -17 3 -23 -13 -43 -29 -37 -11 4
-13 -2 -18 -61 -1 -13 -8 -27 -16 -30 -7 -2 -10 0 -7 5 3 5 0 7 -8 4 -8 -3
-15 -16 -16 -30 -4 -60 -5 -61 -29 -56 -16 3 -22 0 -20 -9 2 -8 -4 -13 -14
-11 -9 1 -19 -2 -22 -7 -3 -5 2 -8 11 -7 9 0 18 -5 21 -13 3 -9 0 -12 -10 -9
-21 9 -39 -5 -41 -31 -1 -13 -6 -20 -14 -17 -7 3 -15 1 -18 -5 -4 -5 -10 -7
-14 -5 -4 3 -8 -1 -8 -9 0 -8 5 -11 11 -8 6 4 5 -1 -3 -10 -11 -14 -17 -15
-28 -5 -11 9 -13 8 -11 -3 2 -9 -5 -14 -19 -13 -13 1 -20 -3 -17 -7 3 -5 10
-7 15 -4 5 4 9 -1 9 -9 0 -19 -11 -21 -27 -5 -8 8 -13 7 -18 -2 -6 -8 -4 -10
6 -5 8 5 8 2 -2 -6 -9 -7 -14 -18 -12 -25 2 -6 0 -14 -5 -17 -6 -3 -9 2 -8 11
0 9 -4 18 -10 20 -6 2 -10 -7 -10 -19 1 -18 -5 -23 -24 -23 -18 0 -25 -6 -25
-19 0 -11 -8 -20 -18 -22 -9 -1 -15 1 -12 5 2 4 -2 8 -10 8 -8 0 -12 -4 -9 -9
4 -7 -16 -12 -38 -10 -3 1 -9 -5 -12 -14 -4 -10 -1 -13 7 -9 6 4 4 0 -6 -9
-11 -8 -25 -12 -33 -9 -8 3 -14 -1 -14 -8 0 -9 -3 -10 -11 -2 -7 7 -21 8 -40
3 -16 -5 -33 -9 -36 -9 -4 0 -9 -4 -11 -10 -5 -14 11 -14 24 -1 8 8 14 7 22
-3 10 -11 3 -13 -39 -12 -28 0 -52 -2 -54 -5 -2 -3 -24 -5 -49 -5 -25 1 -46
-2 -46 -7 0 -5 -11 -6 -24 -4 -19 3 -23 1 -19 -14 5 -17 -6 -18 -151 -19 -121
-2 -156 1 -156 11 0 10 -2 10 -8 1 -9 -14 -63 -13 -74 2 -15 19 -8 28 10 12
14 -12 19 -13 29 -2 10 10 9 14 -3 19 -9 3 -12 1 -9 -4 7 -11 -8 -14 -19 -3
-3 4 -28 8 -54 10 -122 8 -142 10 -149 17 -4 4 5 5 20 2 19 -3 27 -1 24 7 -2
7 -11 11 -21 9 -9 -2 -16 1 -16 5 0 5 -12 9 -27 9 -69 2 -73 4 -73 25 0 13 -6
20 -17 18 -34 -3 -43 1 -43 21 0 11 -7 20 -15 20 -8 0 -15 -5 -15 -11 0 -5 4
-7 10 -4 16 10 12 -1 -6 -15 -8 -8 -14 -9 -13 -4 3 19 -1 47 -7 41 -9 -9 -46
12 -39 22 8 13 -23 34 -40 27 -8 -3 -15 -1 -15 5 0 6 -4 8 -9 5 -5 -3 -15 2
-22 12 -12 15 -12 16 2 5 9 -7 19 -10 22 -6 9 9 9 23 0 22 -27 -4 -43 3 -43
20 0 13 -8 21 -22 23 -18 2 -23 9 -22 31 1 22 -2 25 -12 16 -11 -9 -14 -8 -14
1 0 8 -3 11 -6 8 -3 -4 -1 -15 5 -25 8 -15 7 -20 -5 -20 -8 0 -13 6 -10 12 2
7 -2 24 -9 38 -7 14 -11 28 -7 31 3 3 0 6 -6 6 -15 0 -15 -12 -2 -28 5 -7 2
-4 -8 5 -9 10 -24 24 -32 32 -13 12 -13 13 2 8 12 -4 15 -2 11 9 -6 17 -15 18
-31 4 -9 -7 -9 -7 -2 2 15 18 12 28 -6 21 -13 -5 -15 0 -12 23 2 25 0 29 -19
28 -18 -1 -22 4 -21 21 2 17 7 22 21 19 23 -4 36 -14 18 -14 -7 0 -9 -5 -6
-10 4 -6 10 -8 15 -5 5 3 12 0 16 -6 5 -8 3 -9 -6 -4 -9 5 -11 4 -6 -4 4 -6
12 -9 17 -6 17 11 31 -6 18 -21 -12 -14 -10 -15 31 -18 9 -1 16 -13 18 -30 3
-22 6 -26 13 -15 7 11 9 11 9 1 0 -7 4 -11 9 -8 9 6 29 -13 30 -29 0 -5 12
-11 26 -13 20 -3 25 -7 20 -23 -7 -21 9 -26 21 -7 4 7 3 8 -4 4 -8 -5 -10 -1
-5 10 5 15 7 15 15 0 5 -9 6 -20 3 -26 -7 -11 39 -25 53 -16 5 3 9 -4 8 -16
-1 -18 5 -23 26 -25 35 -2 68 -21 65 -36 -1 -7 8 -11 26 -9 24 3 32 -4 29 -30
-1 -3 5 -11 12 -17 11 -9 12 -6 9 12 -3 17 0 24 11 24 12 0 13 -4 5 -13 -13
-16 12 -30 61 -33 19 -1 42 -9 50 -18 14 -15 13 -16 -3 -4 -15 12 -17 12 -12
0 5 -14 39 -19 128 -22 15 -1 27 -4 27 -9 0 -4 9 -5 20 -3 11 2 23 -1 26 -7 4
-7 2 -8 -4 -4 -7 4 -12 2 -12 -3 0 -14 -8 -13 212 -15 104 0 188 3 188 8 0 5
8 2 17 -5 13 -11 15 -11 9 -1 -5 9 -3 12 7 10 9 -2 15 2 14 7 -1 6 -6 9 -10 7
-5 -1 -6 6 -2 17 7 23 -10 38 -19 16 -3 -9 -12 -12 -22 -8 -10 4 -15 2 -11 -4
3 -5 0 -10 -8 -10 -8 0 -12 3 -10 7 2 4 -29 6 -70 6 -49 -1 -76 2 -79 10 -3 7
3 10 14 7 10 -3 21 1 25 8 6 9 2 11 -13 7 -12 -3 -23 -1 -26 6 -3 7 -5 7 -5
-2 -1 -10 -6 -10 -23 -1 -18 10 -20 9 -15 -5 4 -10 3 -15 -2 -11 -5 3 -12 -1
-15 -7 -3 -7 -4 -4 -1 7 4 18 0 20 -58 20 -69 0 -87 7 -80 33 3 13 -2 17 -21
17 -13 0 -21 -4 -18 -10 3 -5 -1 -5 -9 2 -9 7 -30 13 -47 15 -18 1 -32 7 -32
13 0 5 -5 3 -11 -5 -9 -13 -10 -13 -6 0 2 8 11 15 20 15 28 0 28 11 -1 13 -65
4 -77 8 -76 25 1 9 -2 15 -6 12 -5 -3 -11 -1 -15 5 -4 6 -10 8 -15 5 -5 -3
-11 -1 -14 4 -3 5 -15 7 -26 4 -12 -3 -20 0 -20 6 0 7 5 9 11 6 6 -4 5 3 -3
14 -8 13 -20 20 -31 17 -12 -3 -19 3 -23 19 -5 19 -15 25 -51 31 -29 4 -40 9
-32 15 7 4 17 5 23 2 5 -3 6 -1 2 5 -4 7 -2 12 5 12 7 0 10 3 7 6 -4 3 -16 1
-27 -6 -17 -9 -21 -8 -21 5 0 12 -6 15 -20 10 -16 -5 -20 -2 -20 18 0 14 -8
31 -17 38 -9 8 -14 9 -10 3 3 -6 0 -11 -8 -11 -8 0 -17 7 -19 14 -3 8 -2 11 4
8 5 -3 3 7 -5 21 -8 15 -12 31 -9 36 3 5 2 8 -3 7 -32 -6 -45 2 -39 24 4 18 1
23 -17 24 -17 2 -19 0 -7 -7 11 -7 11 -10 2 -10 -15 0 -32 39 -24 58 3 9 -3
11 -22 8 -23 -4 -26 -2 -26 25 0 23 -4 29 -21 29 -16 0 -20 5 -16 20 3 11 0
18 -7 17 -7 -1 -10 11 -9 33 0 19 -1 29 -4 23 -8 -21 -42 4 -38 27 3 18 -9 25
-37 22 -3 -1 -9 5 -12 14 -3 9 -2 12 5 8 6 -3 5 2 -2 13 -13 22 -4 77 11 68 6
-3 10 -1 10 4 0 17 -18 13 -29 -6 -6 -10 -11 -13 -11 -6 0 7 -7 10 -17 6 -11
-4 -14 -3 -9 5 4 7 3 12 -1 12 -5 0 -8 15 -8 32 0 28 -3 33 -21 31 -19 -2 -22
3 -22 32 0 18 -3 38 -7 44 -4 7 1 8 12 4 15 -6 16 -4 5 9 -10 13 -10 18 -1 24
8 4 9 3 5 -4 -4 -7 -1 -12 8 -12 22 0 20 -27 -1 -33 -13 -3 -12 -5 5 -6 13 0
20 -5 17 -11 -4 -6 4 -9 17 -7 21 2 23 -2 23 -50 -1 -38 2 -49 11 -42 6 5 19
7 28 3 13 -5 17 -20 16 -59 0 -3 5 -12 12 -19 10 -11 16 -11 27 -2 11 8 13 8
8 -1 -4 -6 -3 -14 3 -18 6 -4 8 -11 5 -16 -4 -5 -1 -17 4 -26 8 -13 10 -14 11
-3 0 11 3 11 12 2 6 -6 13 -17 14 -24 4 -27 32 -69 36 -56 3 7 -2 18 -9 23
-12 9 -11 11 5 11 15 0 19 -6 16 -23 -3 -13 1 -23 6 -23 7 0 9 -8 5 -20 -5
-16 -2 -20 18 -20 14 0 28 -6 30 -12 4 -10 8 -9 16 2 8 11 11 11 11 2 0 -7 -7
-15 -15 -18 -8 -4 -15 -10 -15 -15 0 -11 23 -7 32 6 5 6 8 3 9 -7 3 -35 4 -38
14 -37 6 0 9 7 7 14 -2 9 3 13 11 9 9 -3 13 -13 9 -26 -3 -14 -1 -19 6 -14 7
4 12 2 12 -4 0 -6 4 -8 10 -5 6 3 15 3 22 -1 8 -5 6 -10 -8 -15 -17 -7 -17 -8
-1 -8 9 -1 17 -5 17 -11 0 -5 11 -10 24 -10 14 0 28 -5 32 -12 4 -7 3 -8 -4
-4 -7 4 -12 3 -12 -3 0 -13 18 -24 44 -25 14 -1 21 -8 21 -21 0 -13 6 -19 18
-17 9 2 17 -1 17 -6 0 -5 11 -7 25 -4 14 2 26 0 26 -7 1 -6 2 -16 3 -23 0 -6
12 -13 25 -15 14 -2 31 -9 40 -16 12 -10 13 -9 7 1 -6 10 -3 13 10 10 13 -3
18 -11 17 -26 -3 -20 0 -21 16 -12 14 7 22 7 26 0 4 -6 12 -10 18 -9 30 4 57
-2 57 -12 0 -5 -4 -7 -10 -4 -6 4 -7 -1 -3 -11 4 -11 8 -13 11 -6 3 9 9 9 23
2 11 -6 46 -12 79 -13 33 -1 60 -6 60 -11 0 -5 7 -3 15 4 10 8 15 9 15 2 0 -6
8 -9 18 -6 12 4 14 3 4 -4 -8 -5 -24 -8 -37 -7 -13 2 -26 -3 -28 -9 -4 -9 3
-12 19 -10 13 1 24 -3 24 -9 0 -7 4 -6 9 2 8 13 12 13 27 0 14 -11 16 -11 10
0 -7 10 -3 11 15 5 32 -10 138 -12 166 -2 13 4 25 3 29 -3 3 -6 12 -8 19 -5 7
2 21 -2 32 -9 17 -13 17 -14 -4 -12 -12 0 -19 5 -17 9 3 4 -3 5 -12 1 -11 -4
-13 -8 -6 -11 7 -2 9 -9 6 -15 -5 -9 -3 -8 6 0 9 8 19 9 31 3 11 -7 20 -7 24
0 4 6 13 7 24 1 10 -6 23 -6 31 -1 9 6 17 5 22 -3 6 -9 8 -9 8 1 0 6 5 12 11
12 5 0 7 -4 4 -10 -3 -6 1 -7 10 -3 26 10 -4 23 -39 17 -25 -4 -27 -3 -17 10
7 8 20 12 28 9 10 -4 14 -2 10 4 -4 6 -1 14 5 17 7 3 2 3 -12 -1 -22 -5 -23
-4 -11 11 16 19 19 18 -51 20 -35 1 -54 -3 -50 -9 3 -6 -1 -5 -9 1 -13 10 -78
18 -136 17 -12 -1 -24 6 -28 15 -4 12 -3 12 9 3 11 -9 15 -8 20 4 5 15 -7 18
-91 18 -18 0 -33 4 -33 9 0 5 -5 6 -11 3 -6 -4 -9 0 -7 10 2 10 -3 20 -11 23
-9 3 -12 0 -9 -10 8 -19 -7 -45 -16 -29 -4 6 -3 11 3 11 14 0 3 27 -12 27 -47
3 -82 13 -79 22 1 6 -2 11 -8 11 -5 0 -10 6 -10 14 0 9 -10 12 -30 10 -32 -4
-38 4 -18 24 7 7 10 12 8 13 -35 6 -47 4 -43 -8 3 -7 9 -10 14 -7 15 9 10 -3
-7 -16 -8 -8 -14 -9 -13 -4 5 20 -15 44 -36 44 -19 0 -22 4 -17 22 3 14 1 19
-6 14 -6 -3 -13 -2 -17 4 -4 6 -10 8 -15 5 -11 -7 -32 30 -23 39 3 3 1 6 -6 6
-8 0 -11 -6 -7 -16 3 -8 2 -13 -3 -9 -5 3 -12 -1 -15 -7 -3 -7 -3 -3 0 10 3
13 1 22 -6 22 -6 0 -8 5 -5 10 3 6 -1 13 -9 16 -9 3 -13 11 -9 17 3 6 1 7 -5
3 -7 -4 -18 -4 -24 1 -13 7 -17 9 -37 12 -5 0 -8 9 -7 18 0 10 -5 18 -11 19
-7 1 -17 2 -23 3 -5 0 -10 10 -10 21 0 15 -7 20 -26 20 -19 0 -25 4 -20 15 3
8 1 15 -4 15 -6 0 -9 6 -7 13 1 6 -7 12 -18 12 -13 0 -20 7 -20 20 0 14 -9 22
-30 26 -17 4 -25 7 -18 8 7 1 10 8 6 19 -9 24 -25 33 -39 21 -15 -13 -25 2
-14 21 6 9 2 20 -12 32 -18 16 -19 18 -4 18 10 0 14 5 10 11 -3 6 -15 9 -25 6
-17 -5 -25 8 -20 36 1 7 -15 11 -31 8 -5 0 -8 2 -9 7 0 4 -3 16 -6 27 -2 11
-5 30 -6 42 -1 18 -6 22 -24 18 -20 -3 -23 1 -23 26 0 24 -4 29 -24 29 -19 0
-23 5 -21 25 2 14 0 25 -5 25 -4 0 -11 8 -14 17 -4 10 -4 14 0 10 4 -4 15 0
25 9 22 20 41 10 37 -19 -2 -17 2 -21 22 -22 15 0 25 -6 25 -15 0 -8 3 -19 6
-25 4 -5 5 -18 4 -28 -2 -9 1 -15 6 -12 10 7 41 -8 40 -18 -5 -34 0 -45 19
-40 13 3 20 0 21 -8 2 -28 4 -34 9 -35 23 -3 48 -27 44 -39 -5 -11 1 -15 20
-15 21 0 26 -5 26 -26 0 -21 4 -25 20 -21 19 5 22 1 24 -33 1 -9 11 -15 26
-15 18 0 26 -6 28 -23 2 -13 10 -22 22 -22 15 0 35 -24 32 -40 0 -3 7 -6 16
-7 22 -1 64 -11 69 -16 2 -3 -3 -7 -12 -11 -9 -3 -14 -2 -11 2 3 5 -1 9 -9 9
-10 0 -12 -4 -5 -12 5 -7 7 -16 3 -21 -4 -5 -2 -4 6 3 11 9 17 9 27 -2 8 -7
23 -11 34 -8 11 3 21 0 21 -6 1 -6 2 -17 3 -23 1 -7 11 -12 24 -10 20 3 26 -7
24 -38 0 -5 27 -9 76 -11 16 -1 22 -6 18 -15 -3 -8 -1 -14 5 -14 6 0 8 -4 5
-8 -2 -4 14 -8 37 -7 30 0 42 -4 43 -15 1 -8 2 -20 3 -25 0 -6 10 -11 20 -11
11 0 17 4 15 8 -3 4 0 8 5 8 6 0 11 -4 11 -8 0 -7 33 -12 88 -15 7 0 10 -8 7
-18 -4 -13 -1 -16 12 -14 10 2 20 4 23 4 3 1 -2 6 -10 12 -13 9 -13 10 0 6 8
-2 14 -10 12 -16 -2 -12 -2 -12 53 -15 22 -1 46 -5 52 -9 7 -4 21 -3 31 2 14
7 19 6 19 -4 0 -7 -6 -11 -14 -8 -8 3 -11 0 -8 -9 4 -11 28 -14 105 -14 55 1
100 -2 100 -5 0 -4 18 -3 40 1 27 5 40 4 40 -4 0 -7 3 -7 8 -1 4 6 54 10 113
10 l106 0 -1 33 c-1 18 -5 32 -10 31 -5 0 -13 5 -18 13 -8 10 -9 10 -5 -2 2
-8 10 -14 16 -12 12 2 15 -11 4 -21 -3 -4 -12 -2 -19 4 -9 7 -17 4 -28 -13
-18 -25 -22 -17 -6 12 7 13 7 21 -2 26 -7 4 -8 3 -4 -4 10 -16 -7 -15 -23 1
-11 10 -11 8 0 -10 11 -18 11 -25 1 -35 -11 -11 -12 -10 -7 3 4 10 1 20 -6 25
-7 4 -10 3 -6 -3 9 -15 -69 -9 -89 8 -11 9 -15 9 -10 1 5 -9 1 -11 -16 -8 -13
3 -27 5 -31 5 -5 1 -6 5 -2 11 3 5 12 7 19 4 8 -3 16 -2 19 3 3 4 -8 8 -24 8
-20 1 -29 -4 -29 -15 0 -9 -7 -17 -14 -17 -11 0 -12 5 -6 17 8 15 4 17 -23 15
-18 -1 -36 1 -42 4 -5 3 -35 6 -65 7 -99 2 -120 4 -120 13 0 4 11 7 23 6 13
-2 24 2 24 9 0 7 -10 13 -21 14 -12 0 -42 2 -68 4 -25 1 -46 5 -46 8 2 32 -4
40 -27 36 -13 -3 -27 0 -31 5 -4 6 -11 6 -19 -1 -15 -12 -30 3 -20 20 3 6 1
10 -5 10 -6 0 -9 4 -6 8 2 4 -4 8 -14 8 -18 0 -18 -1 -2 -21 14 -16 12 -16 -9
3 -14 12 -36 22 -48 22 -20 0 -21 2 -11 15 7 8 9 15 4 16 -18 1 -46 8 -61 13
-12 5 -13 9 -4 20 9 10 8 15 -4 20 -9 3 -14 2 -10 -3 3 -5 2 -17 -2 -28 -6
-15 -8 -13 -13 12 -4 24 -10 30 -30 30 -16 0 -26 7 -30 21 -3 12 -12 20 -21
19 -8 -2 -21 6 -28 17 -10 16 -10 18 0 13 8 -6 10 -4 5 4 -5 7 -15 10 -23 7
-9 -4 -18 5 -27 25 -7 17 -16 30 -19 30 -20 -1 -68 13 -74 22 -4 6 0 8 9 5 8
-4 21 -2 29 4 12 8 11 9 -1 5 -20 -6 -52 17 -48 34 2 8 -5 14 -15 14 -23 0
-39 26 -26 42 8 9 6 11 -9 8 -12 -2 -26 2 -32 10 -6 7 -20 11 -30 8 -12 -3
-20 0 -20 6 0 7 4 10 9 7 14 -9 42 5 35 16 -4 6 -10 5 -15 -3 -7 -11 -9 -11
-9 -1 0 7 -4 10 -10 7 -5 -3 -11 -1 -11 4 -1 6 -3 16 -4 21 -1 6 -3 15 -4 20
0 6 -6 10 -12 10 -5 0 -7 -6 -3 -12 5 -9 2 -9 -9 1 -9 7 -17 24 -17 37 0 19
-5 24 -25 24 -17 0 -23 4 -19 15 4 8 11 12 17 8 6 -3 7 -1 3 5 -4 7 -14 12
-23 12 -11 0 -14 7 -10 27 l5 27 -20 -25 c-11 -13 -17 -18 -13 -11 3 6 0 12
-7 12 -11 0 -10 2 0 9 11 7 11 9 -1 14 -10 4 -13 13 -10 26 5 19 -4 26 -29 22
-8 -1 -12 29 -10 62 1 9 -3 17 -9 17 -5 0 -7 5 -3 11 4 7 -1 7 -16 -1 -19 -10
-21 -9 -20 7 4 33 0 43 -14 43 -8 0 -17 4 -20 9 -4 5 3 7 13 4 15 -4 19 0 17
13 -2 10 -9 20 -17 22 -11 3 -11 1 1 -8 13 -10 12 -11 -3 -6 -10 3 -21 6 -23
6 -2 0 -4 14 -4 30 0 17 -5 30 -12 30 -9 0 -8 4 2 10 11 7 11 10 2 10 -8 0
-10 5 -6 12 5 8 2 9 -9 5 -10 -3 -17 -5 -17 -4 -1 1 -3 26 -6 55 -6 51 -5 52
21 52 18 0 25 4 22 13 -8 21 11 57 30 56 17 -1 17 -2 1 -6 -24 -6 -23 -19 1
-19 13 0 18 7 17 26 -1 20 4 25 22 24 14 0 22 5 22 16 0 9 7 25 16 36 8 10 13
13 9 7 -4 -8 0 -13 10 -13 12 0 15 6 10 21 -5 14 -3 19 3 15 6 -3 13 -2 17 4
4 6 11 8 16 4 5 -3 16 0 25 6 12 10 12 16 2 28 -11 13 -10 15 10 10 15 -4 25
-2 29 8 4 10 9 11 17 5 13 -11 30 -3 34 17 1 8 -2 11 -9 6 -8 -5 -9 -3 -4 5 4
8 20 11 36 9 23 -4 29 -1 29 14 0 20 8 25 58 32 19 2 36 7 39 10 3 2 15 1 28
-4 28 -11 67 11 45 25 -9 5 -11 4 -6 -3 10 -16 -7 -15 -23 1 -11 10 -13 10 -7
0 4 -7 2 -13 -4 -13 -7 0 -10 6 -8 12 3 8 26 14 59 15 81 3 92 6 116 30 19 20
22 21 29 5 4 -9 6 -21 5 -26 -1 -5 4 -4 12 2 10 9 17 9 27 -1 10 -9 11 -9 6 1
-4 7 -2 12 6 12 10 0 9 3 -2 10 -9 5 -19 5 -26 0 -11 -10 -24 -4 -24 10 0 4
65 8 145 8 112 1 144 -2 138 -11 -5 -9 -4 -9 8 0 17 14 59 13 59 0 0 -5 6 -4
14 2 10 9 15 8 19 -3 4 -9 1 -18 -5 -22 -6 -4 -8 -3 -5 3 3 5 -4 9 -16 8 -35
-3 -16 -18 25 -20 25 -1 35 2 31 9 -4 6 4 4 17 -4 14 -9 46 -15 72 -15 26 1
45 -1 42 -4 -3 -4 -11 -6 -16 -6 -6 0 -13 -7 -15 -15 -4 -12 -3 -12 5 -1 7 9
12 10 16 2 4 -6 12 -11 17 -11 6 0 8 4 4 9 -3 5 0 13 6 17 7 4 9 3 6 -3 -10
-15 13 -29 46 -27 20 1 26 -3 23 -12 -3 -8 -1 -14 4 -14 6 0 10 7 10 16 0 14
2 14 16 3 10 -8 12 -15 5 -17 -31 -10 -2 -21 67 -25 6 0 12 -4 12 -9 0 -5 5
-6 12 -2 8 5 9 2 5 -9 -6 -17 -1 -20 36 -20 15 0 23 -20 18 -49 0 -4 6 -5 15
-1 17 6 59 -33 43 -41 -5 -2 -4 -3 3 -2 7 2 12 11 10 21 -2 11 2 15 10 13 7
-3 12 -15 10 -28 -2 -14 0 -20 7 -16 6 4 11 1 11 -6 0 -9 2 -10 8 -2 5 9 11 8
20 -2 10 -12 10 -14 -2 -14 -8 0 -18 -4 -21 -10 -3 -6 1 -7 10 -4 9 4 22 -1
31 -12 9 -11 13 -14 10 -8 -3 6 1 11 9 11 10 0 13 -8 11 -24 -4 -21 7 -29 36
-24 4 0 13 -19 19 -43 9 -36 15 -44 30 -41 13 3 19 -2 19 -15 0 -35 11 -52 26
-39 9 8 14 8 14 1 0 -7 10 -8 28 -3 15 4 39 7 53 7 20 -1 25 2 21 16 -2 10 -8
19 -13 19 -5 1 -15 2 -21 3 -7 1 -12 9 -12 19 1 9 -2 17 -8 17 -5 0 -7 4 -3 9
3 6 -4 8 -15 6 -18 -4 -26 9 -21 38 0 4 -4 7 -10 7 -5 0 -7 6 -3 13 5 8 2 8
-9 -2 -15 -12 -17 -11 -18 5 -1 11 -1 22 0 27 0 4 -6 7 -15 7 -8 0 -12 5 -8
11 5 8 1 8 -13 0 -18 -9 -20 -7 -15 14 4 25 -7 31 -47 25 -12 -1 -12 1 -3 13
10 11 9 17 -3 27 -9 7 -18 10 -22 7 -3 -4 -12 -2 -20 4 -10 9 -10 15 -2 25 9
11 8 14 -2 16 -8 0 -18 2 -24 3 -5 2 -16 3 -23 4 -9 1 -10 6 -2 20 9 18 7 19
-20 16 -17 -2 -30 1 -30 6 0 6 -4 7 -10 4 -5 -3 -10 -1 -10 5 0 7 -7 9 -16 6
-9 -3 -12 -2 -9 5 4 6 13 8 21 5 7 -3 16 -1 19 3 5 9 -77 26 -105 22 -10 -1
-9 2 4 10 14 9 15 13 5 19 -8 5 -18 2 -26 -8 -12 -16 -13 -16 -7 1 4 11 1 17
-10 18 -33 3 -37 4 -46 19 -5 8 -6 18 -4 22 3 4 -7 9 -23 9 -15 1 -47 2 -70 3
-23 1 -48 7 -54 13 -10 10 -6 11 14 8 14 -3 29 0 33 6 4 8 3 9 -4 5 -7 -4 -17
-4 -24 0 -6 4 -31 8 -56 10 -24 1 -46 5 -49 8 -4 3 -12 1 -20 -5 -10 -9 -13
-8 -13 0 0 7 -4 9 -10 6 -5 -3 -10 2 -10 13 0 15 -7 19 -35 19 -19 0 -35 -4
-35 -9 0 -5 -7 -2 -16 7 -14 13 -19 14 -25 3 -5 -7 -9 -8 -9 -3 0 6 -37 10
-90 10 -50 0 -90 -3 -90 -7 0 -4 -12 -3 -26 2 -23 9 -25 8 -20 -7 6 -17 5 -17
-7 -1 -8 10 -16 15 -19 12 -3 -3 -30 -6 -59 -8 -36 -1 -54 -7 -57 -17 -2 -8 0
-10 5 -4 12 15 33 17 33 2 0 -8 -20 -13 -57 -16 -32 -1 -69 -4 -83 -6 -14 -2
-31 -4 -38 -4 -7 -1 -11 -4 -9 -8 10 -16 -19 -29 -60 -28 -24 0 -43 -4 -43 -8
0 -5 -4 -6 -9 -3 -5 4 -20 2 -33 -3 -23 -10 -23 -10 -1 -10 14 -1 21 -6 17
-14 -2 -7 -17 -12 -32 -11 -37 2 -45 -5 -30 -24 12 -16 11 -16 -7 0 -16 13
-22 14 -32 3 -6 -7 -9 -16 -5 -21 4 -4 -1 -4 -10 -1 -10 4 -18 2 -18 -3 0 -6
-3 -9 -7 -9 -24 4 -53 -2 -53 -11 0 -6 7 -10 16 -8 10 2 18 -3 20 -10 1 -7 0
-8 -2 -4 -8 15 -78 -14 -84 -35 -3 -11 -13 -18 -27 -17 -13 1 -23 -3 -23 -8 0
-5 -5 -6 -11 -2 -8 5 -8 1 0 -14 7 -14 8 -23 1 -27 -5 -3 -10 -1 -10 5 0 8 -6
8 -21 0 -16 -9 -18 -14 -9 -26 13 -15 8 -19 -42 -27 -17 -2 -28 0 -28 7 0 6
-5 4 -10 -4 -12 -19 -12 -21 -14 135 -2 72 2 126 8 134 9 12 8 13 -4 7 -8 -4
-6 0 4 8 11 9 23 16 26 16 9 0 16 94 11 153 -1 14 -9 17 -44 15 -37 -3 -44 -6
-43 -23z m41 -13 c-6 -7 -34 11 -29 19 3 5 11 3 19 -4 7 -6 12 -13 10 -15z
m28 -118 c-9 -25 -22 -15 -20 16 2 26 4 28 14 14 6 -9 9 -22 6 -30z m752 37
c3 -5 2 -12 -3 -15 -5 -3 -9 1 -9 9 0 17 3 19 12 6z m39 0 c3 -5 -1 -11 -9
-14 -9 -4 -12 -1 -8 9 6 16 10 17 17 5z m300 -7 c3 -8 2 -12 -4 -9 -6 3 -10
10 -10 16 0 14 7 11 14 -7z m46 2 c0 6 7 11 15 11 8 0 15 -6 15 -12 0 -18 -43
-13 -47 5 -4 13 -3 13 6 0 6 -8 11 -10 11 -4z m745 -514 c-3 -3 -11 0 -18 7
-9 10 -8 11 6 5 10 -3 15 -9 12 -12z m-2261 0 c3 -5 -1 -9 -9 -9 -8 0 -12 4
-9 9 3 4 7 8 9 8 2 0 6 -4 9 -8z m391 -302 c-3 -5 -1 -10 5 -10 6 0 8 -5 5
-10 -9 -15 13 -40 29 -34 10 4 13 -6 11 -35 -1 -23 2 -41 6 -41 18 0 8 -16
-11 -17 -20 -2 -45 29 -33 40 3 4 0 13 -7 22 -8 10 -9 15 -1 15 6 0 11 5 11
10 0 6 -11 10 -24 10 -25 0 -37 15 -28 37 6 19 22 5 16 -15 -5 -14 -4 -14 4
-3 6 8 8 20 5 28 -3 7 0 13 7 13 6 0 8 -4 5 -10z m-20 -69 c3 -5 2 -12 -3 -15
-5 -3 -9 1 -9 9 0 17 3 19 12 6z m215 -191 c0 -5 -2 -10 -4 -10 -3 0 -8 5 -11
10 -3 6 -1 10 4 10 6 0 11 -4 11 -10z m-355 -20 c3 -5 1 -10 -4 -10 -6 0 -11
5 -11 10 0 6 2 10 4 10 3 0 8 -4 11 -10z m300 -39 c-9 -8 -36 -10 -30 -2 2 4
11 8 20 8 8 0 13 -3 10 -6z m332 -48 c0 -7 -5 -12 -11 -10 -15 5 -18 24 -3 24
8 0 14 -6 14 -14z m-809 -48 c0 -14 -5 -25 -10 -25 -5 0 -2 -7 6 -16 23 -22
20 -30 -4 -9 -11 10 -16 23 -12 29 7 11 8 16 11 36 2 20 9 9 9 -15z m856 0
c-4 -8 -10 -12 -15 -9 -11 6 -2 24 11 24 5 0 7 -7 4 -15z m94 -88 c8 -10 6
-13 -8 -14 -13 -1 -17 3 -13 13 6 17 8 17 21 1z m-83 -87 c3 -6 -1 -7 -9 -4
-18 7 -21 14 -7 14 6 0 13 -4 16 -10z m-340 -101 c-4 -5 -12 -9 -18 -8 -9 0
-8 2 1 6 6 2 9 10 6 15 -4 7 -2 8 5 4 6 -4 9 -12 6 -17z m535 -35 c0 -8 -19
-13 -24 -6 -3 5 1 9 9 9 8 0 15 -2 15 -3z m90 -48 c0 -3 -4 -8 -10 -11 -5 -3
-10 -1 -10 4 0 6 5 11 10 11 6 0 10 -2 10 -4z m-245 -27 c-3 -4 -12 -6 -20 -3
-8 4 -13 10 -10 15 3 4 12 6 20 3 8 -4 13 -10 10 -15z m340 -19 c3 -5 1 -10
-4 -10 -6 0 -11 5 -11 10 0 6 2 10 4 10 3 0 8 -4 11 -10z m-725 -24 c0 -3 -4
-8 -10 -11 -5 -3 -10 -1 -10 4 0 6 5 11 10 11 6 0 10 -2 10 -4z m43 -40 c4
-10 1 -13 -9 -9 -15 6 -19 23 -5 23 5 0 11 -7 14 -14z m1463 -28 c4 4 3 -1 -5
-10 -12 -16 -41 -15 -41 1 0 15 13 21 25 11 7 -5 16 -6 21 -2z m-1225 -21
c-10 -9 -11 -8 -5 6 3 10 9 15 12 12 3 -3 0 -11 -7 -18z m779 13 c0 -5 -5 -10
-11 -10 -5 0 -7 5 -4 10 3 6 8 10 11 10 2 0 4 -4 4 -10z m-670 -60 c0 -5 -2
-10 -4 -10 -3 0 -8 5 -11 10 -3 6 -1 10 4 10 6 0 11 -4 11 -10z m205 -80 c3
-5 1 -10 -4 -10 -6 0 -11 5 -11 10 0 6 2 10 4 10 3 0 8 -4 11 -10z m-355 -21
c0 -14 -17 -10 -23 5 -4 10 -1 13 9 9 7 -3 14 -9 14 -14z m855 -29 c3 -5 1
-10 -4 -10 -6 0 -11 5 -11 10 0 6 2 10 4 10 3 0 8 -4 11 -10z m63 -7 c-6 -7
-7 -13 -3 -13 5 0 1 -8 -8 -18 -10 -10 -14 -22 -10 -27 5 -4 -1 -3 -13 3 -13
7 -25 8 -32 1 -7 -5 -10 -6 -7 -2 3 3 -2 18 -12 32 -12 19 -12 23 -2 14 9 -7
20 -8 28 -3 8 4 21 5 30 2 13 -5 14 -3 4 9 -10 13 -8 15 12 15 19 0 22 -3 13
-13z m-784 -48 c3 -8 1 -15 -4 -15 -6 0 -10 7 -10 15 0 8 2 15 4 15 2 0 6 -7
10 -15z m-377 -10 c0 -11 -4 -12 -14 -4 -7 6 -13 13 -13 15 0 2 6 4 13 4 8 0
14 -7 14 -15z m585 -82 c-6 -2 -10 -8 -8 -12 3 -4 -1 -8 -9 -8 -11 0 -12 4 -4
14 6 7 17 13 23 12 7 0 6 -2 -2 -6z m-728 -41 c3 -5 -1 -9 -9 -9 -8 0 -12 4
-9 9 3 4 7 8 9 8 2 0 6 -4 9 -8z m1783 -18 c-3 -3 -12 -4 -19 -1 -8 3 -5 6 6
6 11 1 17 -2 13 -5z m-634 -22 c-2 -10 -13 -19 -24 -19 -18 -2 -18 0 3 17 13
11 24 19 25 20 0 0 -1 -8 -4 -18z m577 -7 c0 -8 -4 -15 -10 -15 -5 0 -7 7 -4
15 4 8 8 15 10 15 2 0 4 -7 4 -15z m-555 -102 c-2 -10 -4 -20 -4 -22 -1 -3 -7
1 -13 7 -10 10 -10 15 2 22 19 12 19 13 15 -7z m-38 -8 c0 -6 -9 -12 -19 -12
-10 -1 -18 4 -18 10 0 7 8 13 18 13 10 0 19 -5 19 -11z m403 -30 c-7 -9 -15
-13 -17 -11 -7 7 7 26 19 26 6 0 6 -6 -2 -15z m-918 -157 c-7 -7 -12 -8 -12
-2 0 14 12 26 19 19 2 -3 -1 -11 -7 -17z m68 6 c0 -8 -19 -13 -24 -6 -3 5 1 9
9 9 8 0 15 -2 15 -3z"/>
<path d="M450 1580 c0 -5 5 -10 11 -10 5 0 7 5 4 10 -3 6 -8 10 -11 10 -2 0
-4 -4 -4 -10z"/>
<path d="M1710 520 c-9 -6 -10 -10 -3 -10 6 0 15 5 18 10 8 12 4 12 -15 0z"/>
<path d="M1739 513 c-13 -16 -12 -17 4 -4 16 13 21 21 13 21 -2 0 -10 -8 -17
-17z"/>
<path d="M923 2445 c0 -8 4 -12 9 -9 5 3 6 10 3 15 -9 13 -12 11 -12 -6z"/>
<path d="M415 2409 c-4 -6 -5 -12 -2 -15 2 -3 7 2 10 11 7 17 1 20 -8 4z"/>
<path d="M1171 2377 c-8 -10 -7 -14 4 -14 8 0 15 6 15 14 0 7 -2 13 -4 13 -2
0 -9 -6 -15 -13z"/>
<path d="M1275 2379 c-3 -4 2 -6 10 -5 21 3 28 13 10 13 -9 0 -18 -4 -20 -8z"/>
<path d="M885 2291 c-3 -5 -1 -12 4 -15 5 -3 11 1 15 9 6 16 -9 21 -19 6z"/>
<path d="M1930 2235 c0 -8 4 -15 8 -15 5 0 9 7 9 15 0 8 -4 15 -9 15 -4 0 -8
-7 -8 -15z"/>
<path d="M2243 2155 c0 -8 4 -12 9 -9 5 3 6 10 3 15 -9 13 -12 11 -12 -6z"/>
<path d="M7 2083 c-4 -3 -7 -11 -7 -17 0 -6 5 -5 12 2 6 6 9 14 7 17 -3 3 -9
2 -12 -2z"/>
<path d="M2175 2040 c3 -5 8 -10 11 -10 2 0 4 5 4 10 0 6 -5 10 -11 10 -5 0
-7 -4 -4 -10z"/>
<path d="M2220 1998 c0 -4 7 -8 15 -8 8 0 15 4 15 8 0 5 -7 9 -15 9 -8 0 -15
-4 -15 -9z"/>
<path d="M342 1301 c-10 -6 -10 -10 2 -20 11 -9 16 -9 22 0 4 8 3 9 -4 5 -7
-4 -12 -3 -12 3 0 5 6 12 13 14 6 3 8 6 2 6 -5 0 -16 -3 -23 -8z"/>
<path d="M690 1157 c-12 -21 -12 -21 6 -7 10 8 20 15 22 16 2 1 -1 4 -5 7 -5
3 -15 -4 -23 -16z"/>
<path d="M410 1120 c0 -5 5 -10 11 -10 5 0 7 5 4 10 -3 6 -8 10 -11 10 -2 0
-4 -4 -4 -10z"/>
<path d="M1956 791 c-3 -5 1 -11 9 -14 9 -4 12 -1 8 9 -6 16 -10 17 -17 5z"/>
<path d="M1993 785 c0 -8 4 -12 9 -9 5 3 6 10 3 15 -9 13 -12 11 -12 -6z"/>
<path d="M2138 788 c5 -5 16 -8 23 -6 8 3 3 7 -10 11 -17 4 -21 3 -13 -5z"/>
<path d="M1405 779 c-4 -6 -4 -13 -1 -16 3 -4 6 -1 6 6 0 7 5 9 12 5 7 -4 8
-3 4 4 -9 15 -13 15 -21 1z"/>
<path d="M405 741 c-3 -5 -2 -12 3 -15 5 -3 9 1 9 9 0 17 -3 19 -12 6z"/>
<path d="M1570 735 c0 -10 29 -24 34 -17 3 6 -3 12 -14 15 -11 3 -20 4 -20 2z"/>
<path d="M2140 736 c0 -2 7 -7 16 -10 8 -3 12 -2 9 4 -6 10 -25 14 -25 6z"/>
<path d="M1266 699 c3 -5 12 -9 21 -9 19 0 9 13 -12 16 -8 1 -13 -2 -9 -7z"/>
<path d="M750 690 c-8 -5 -12 -12 -9 -15 4 -3 12 1 19 10 14 17 11 19 -10 5z"/>
<path d="M2270 648 c0 -4 4 -8 9 -8 6 0 12 4 15 8 3 5 -1 9 -9 9 -8 0 -15 -4
-15 -9z"/>
<path d="M1805 560 c-3 -5 -1 -10 4 -10 6 0 11 5 11 10 0 6 -2 10 -4 10 -3 0
-8 -4 -11 -10z"/>
<path d="M1838 553 c-25 -30 -28 -41 -14 -46 10 -4 12 0 8 15 -4 16 -2 19 9
13 8 -5 11 -5 7 0 -4 4 -3 14 3 22 6 7 9 13 7 13 -3 0 -12 -8 -20 -17z"/>
<path d="M2175 561 c-3 -5 -2 -12 3 -15 5 -3 9 1 9 9 0 17 -3 19 -12 6z"/>
<path d="M1295 540 c-3 -5 -2 -10 4 -10 5 0 13 5 16 10 3 6 2 10 -4 10 -5 0
-13 -4 -16 -10z"/>
<path d="M1610 509 c0 -5 -4 -7 -10 -4 -5 3 -10 2 -10 -3 0 -19 26 -20 27 -1
1 10 0 19 -3 19 -2 0 -4 -5 -4 -11z"/>
<path d="M1870 501 c0 -6 4 -13 10 -16 6 -3 7 1 4 9 -7 18 -14 21 -14 7z"/>
<path d="M2337 445 c3 -8 9 -12 14 -9 12 7 11 11 -5 17 -10 4 -13 1 -9 -8z"/>
<path d="M770 441 c0 -10 26 -9 36 2 4 4 -2 7 -14 7 -12 0 -22 -4 -22 -9z"/>
<path d="M1510 371 c0 -5 -11 -8 -25 -5 -14 2 -25 0 -25 -5 0 -15 18 -23 25
-12 3 6 12 8 20 4 9 -3 15 1 15 11 0 9 -2 16 -5 16 -3 0 -5 -4 -5 -9z"/>
<path d="M1555 370 c-4 -6 -11 -8 -16 -5 -5 4 -9 2 -9 -3 0 -5 16 -9 35 -9 19
1 35 5 35 10 0 4 -10 5 -21 2 -15 -5 -19 -4 -15 4 4 6 5 11 2 11 -3 0 -8 -5
-11 -10z"/>
<path d="M1636 358 c3 -5 10 -6 15 -3 13 9 11 12 -6 12 -8 0 -12 -4 -9 -9z"/>
<path d="M969 343 c-13 -16 -12 -17 4 -4 16 13 21 21 13 21 -2 0 -10 -8 -17
-17z"/>
<path d="M1150 299 c0 -15 18 -19 23 -6 3 8 -1 14 -9 14 -8 0 -14 -4 -14 -8z"/>
<path d="M876 67 c3 -10 9 -15 12 -12 3 3 0 11 -7 18 -10 9 -11 8 -5 -6z"/>
<path d="M1790 76 c0 -2 8 -10 18 -17 15 -13 16 -12 3 4 -13 16 -21 21 -21 13z"/>
<path d="M1004 19 c-4 -7 -3 -9 4 -5 5 3 13 0 15 -6 4 -9 6 -10 6 -1 1 17 -16
25 -25 12z"/>
</g>
</svg>
