<svg xmlns="http://www.w3.org/2000/svg" width="106.667" height="106.667" preserveAspectRatio="xMidYMid meet" version="1.0" viewBox="0 0 80 80"><metadata>Created by potrace 1.14, written by Peter Selinger 2001-2017</metadata><g fill="#000" stroke="none"><path d="M230 578 c-23 -38 -25 -91 -9 -186 10 -56 18 -71 54 -107 68 -68 135 -80 220 -39 36 17 94 88 82 100 -3 3 -23 -12 -44 -34 -46 -48 -151 -85 -137 -47 4 9 0 15 -10 15 -9 0 -16 5 -16 10 0 6 -5 10 -11 10 -14 0 -75 58 -68 65 3 3 17 -4 30 -16 35 -31 90 -52 103 -39 7 7 3 10 -12 10 -12 0 -22 5 -22 10 0 6 -5 10 -10 10 -16 0 -65 48 -58 56 4 3 17 -3 29 -15 13 -12 29 -21 36 -21 7 0 13 -4 13 -10 0 -5 9 -10 20 -10 29 0 25 13 -9 28 -55 24 -137 125 -126 154 11 29 80 58 136 58 45 0 60 -5 89 -30 19 -16 39 -30 43 -30 15 0 -5 21 -44 45 -52 34 -162 36 -203 4 -31 -24 -45 -19 -38 16 6 36 -14 32 -38 -7z" transform="translate(0.000000,80.000000) scale(0.100000,-0.100000)"/></g></svg>